%
M48
M72
T01C0.02362
T02C0.03200
T03C0.04000
T04C0.04331
T05C0.05200
T06C0.11024
%
T01
X114833Y66498
X97333Y91498
X147333Y126498
X179833Y113998
X187333Y108998
X179833Y73998
X187333Y68998
X179833Y33998
X187333Y28998
T02
X187333Y33998
X197333Y33998
X152333Y31498
X152333Y21498
X122333Y21498
X122333Y31498
X122333Y41498
X122333Y51498
X122333Y61498
X122333Y71498
X122333Y81498
X122333Y91498
X122333Y101498
X122333Y111498
X152333Y111498
X152333Y101498
X152333Y91498
X152333Y81498
X152333Y71498
X152333Y61498
X152333Y51498
X152333Y41498
X187333Y73998
X197333Y73998
X197333Y113998
X187333Y113998
X67333Y108998
X67333Y98998
X27333Y98998
X27333Y108998
T03
X37333Y123998
X47333Y123998
X57333Y123998
X87333Y118998
X97333Y118998
X107333Y118998
X107333Y128998
X97333Y128998
X87333Y128998
T04
X209833Y126498
X209833Y96498
X209833Y86498
X209833Y56498
X209833Y46498
X209833Y16498
T05
X37333Y19498
X37333Y39098
X37333Y58898
X37333Y78498
X239833Y68898
X239833Y88498
X239833Y49098
X239833Y29498
T06
X77333Y18998
X252333Y121498
M30
