G75*
%MOIN*%
%OFA0B0*%
%FSLAX25Y25*%
%IPPOS*%
%LPD*%
%AMOC8*
5,1,8,0,0,1.08239X$1,22.5*
%
%ADD10C,0.00000*%
D10*
X0009833Y0003998D02*
X0268042Y0003644D01*
X0267648Y0138486D01*
X0009794Y0138683D01*
X0009833Y0003998D01*
X0071821Y0018998D02*
X0071823Y0019146D01*
X0071829Y0019294D01*
X0071839Y0019442D01*
X0071853Y0019589D01*
X0071871Y0019736D01*
X0071892Y0019882D01*
X0071918Y0020028D01*
X0071948Y0020173D01*
X0071981Y0020317D01*
X0072019Y0020460D01*
X0072060Y0020602D01*
X0072105Y0020743D01*
X0072153Y0020883D01*
X0072206Y0021022D01*
X0072262Y0021159D01*
X0072322Y0021294D01*
X0072385Y0021428D01*
X0072452Y0021560D01*
X0072523Y0021690D01*
X0072597Y0021818D01*
X0072674Y0021944D01*
X0072755Y0022068D01*
X0072839Y0022190D01*
X0072926Y0022309D01*
X0073017Y0022426D01*
X0073111Y0022541D01*
X0073207Y0022653D01*
X0073307Y0022763D01*
X0073409Y0022869D01*
X0073515Y0022973D01*
X0073623Y0023074D01*
X0073734Y0023172D01*
X0073847Y0023268D01*
X0073963Y0023360D01*
X0074081Y0023449D01*
X0074202Y0023534D01*
X0074325Y0023617D01*
X0074450Y0023696D01*
X0074577Y0023772D01*
X0074706Y0023844D01*
X0074837Y0023913D01*
X0074970Y0023978D01*
X0075105Y0024039D01*
X0075241Y0024097D01*
X0075378Y0024152D01*
X0075517Y0024202D01*
X0075658Y0024249D01*
X0075799Y0024292D01*
X0075942Y0024332D01*
X0076086Y0024367D01*
X0076230Y0024399D01*
X0076376Y0024426D01*
X0076522Y0024450D01*
X0076669Y0024470D01*
X0076816Y0024486D01*
X0076963Y0024498D01*
X0077111Y0024506D01*
X0077259Y0024510D01*
X0077407Y0024510D01*
X0077555Y0024506D01*
X0077703Y0024498D01*
X0077850Y0024486D01*
X0077997Y0024470D01*
X0078144Y0024450D01*
X0078290Y0024426D01*
X0078436Y0024399D01*
X0078580Y0024367D01*
X0078724Y0024332D01*
X0078867Y0024292D01*
X0079008Y0024249D01*
X0079149Y0024202D01*
X0079288Y0024152D01*
X0079425Y0024097D01*
X0079561Y0024039D01*
X0079696Y0023978D01*
X0079829Y0023913D01*
X0079960Y0023844D01*
X0080089Y0023772D01*
X0080216Y0023696D01*
X0080341Y0023617D01*
X0080464Y0023534D01*
X0080585Y0023449D01*
X0080703Y0023360D01*
X0080819Y0023268D01*
X0080932Y0023172D01*
X0081043Y0023074D01*
X0081151Y0022973D01*
X0081257Y0022869D01*
X0081359Y0022763D01*
X0081459Y0022653D01*
X0081555Y0022541D01*
X0081649Y0022426D01*
X0081740Y0022309D01*
X0081827Y0022190D01*
X0081911Y0022068D01*
X0081992Y0021944D01*
X0082069Y0021818D01*
X0082143Y0021690D01*
X0082214Y0021560D01*
X0082281Y0021428D01*
X0082344Y0021294D01*
X0082404Y0021159D01*
X0082460Y0021022D01*
X0082513Y0020883D01*
X0082561Y0020743D01*
X0082606Y0020602D01*
X0082647Y0020460D01*
X0082685Y0020317D01*
X0082718Y0020173D01*
X0082748Y0020028D01*
X0082774Y0019882D01*
X0082795Y0019736D01*
X0082813Y0019589D01*
X0082827Y0019442D01*
X0082837Y0019294D01*
X0082843Y0019146D01*
X0082845Y0018998D01*
X0082843Y0018850D01*
X0082837Y0018702D01*
X0082827Y0018554D01*
X0082813Y0018407D01*
X0082795Y0018260D01*
X0082774Y0018114D01*
X0082748Y0017968D01*
X0082718Y0017823D01*
X0082685Y0017679D01*
X0082647Y0017536D01*
X0082606Y0017394D01*
X0082561Y0017253D01*
X0082513Y0017113D01*
X0082460Y0016974D01*
X0082404Y0016837D01*
X0082344Y0016702D01*
X0082281Y0016568D01*
X0082214Y0016436D01*
X0082143Y0016306D01*
X0082069Y0016178D01*
X0081992Y0016052D01*
X0081911Y0015928D01*
X0081827Y0015806D01*
X0081740Y0015687D01*
X0081649Y0015570D01*
X0081555Y0015455D01*
X0081459Y0015343D01*
X0081359Y0015233D01*
X0081257Y0015127D01*
X0081151Y0015023D01*
X0081043Y0014922D01*
X0080932Y0014824D01*
X0080819Y0014728D01*
X0080703Y0014636D01*
X0080585Y0014547D01*
X0080464Y0014462D01*
X0080341Y0014379D01*
X0080216Y0014300D01*
X0080089Y0014224D01*
X0079960Y0014152D01*
X0079829Y0014083D01*
X0079696Y0014018D01*
X0079561Y0013957D01*
X0079425Y0013899D01*
X0079288Y0013844D01*
X0079149Y0013794D01*
X0079008Y0013747D01*
X0078867Y0013704D01*
X0078724Y0013664D01*
X0078580Y0013629D01*
X0078436Y0013597D01*
X0078290Y0013570D01*
X0078144Y0013546D01*
X0077997Y0013526D01*
X0077850Y0013510D01*
X0077703Y0013498D01*
X0077555Y0013490D01*
X0077407Y0013486D01*
X0077259Y0013486D01*
X0077111Y0013490D01*
X0076963Y0013498D01*
X0076816Y0013510D01*
X0076669Y0013526D01*
X0076522Y0013546D01*
X0076376Y0013570D01*
X0076230Y0013597D01*
X0076086Y0013629D01*
X0075942Y0013664D01*
X0075799Y0013704D01*
X0075658Y0013747D01*
X0075517Y0013794D01*
X0075378Y0013844D01*
X0075241Y0013899D01*
X0075105Y0013957D01*
X0074970Y0014018D01*
X0074837Y0014083D01*
X0074706Y0014152D01*
X0074577Y0014224D01*
X0074450Y0014300D01*
X0074325Y0014379D01*
X0074202Y0014462D01*
X0074081Y0014547D01*
X0073963Y0014636D01*
X0073847Y0014728D01*
X0073734Y0014824D01*
X0073623Y0014922D01*
X0073515Y0015023D01*
X0073409Y0015127D01*
X0073307Y0015233D01*
X0073207Y0015343D01*
X0073111Y0015455D01*
X0073017Y0015570D01*
X0072926Y0015687D01*
X0072839Y0015806D01*
X0072755Y0015928D01*
X0072674Y0016052D01*
X0072597Y0016178D01*
X0072523Y0016306D01*
X0072452Y0016436D01*
X0072385Y0016568D01*
X0072322Y0016702D01*
X0072262Y0016837D01*
X0072206Y0016974D01*
X0072153Y0017113D01*
X0072105Y0017253D01*
X0072060Y0017394D01*
X0072019Y0017536D01*
X0071981Y0017679D01*
X0071948Y0017823D01*
X0071918Y0017968D01*
X0071892Y0018114D01*
X0071871Y0018260D01*
X0071853Y0018407D01*
X0071839Y0018554D01*
X0071829Y0018702D01*
X0071823Y0018850D01*
X0071821Y0018998D01*
X0246821Y0121498D02*
X0246823Y0121646D01*
X0246829Y0121794D01*
X0246839Y0121942D01*
X0246853Y0122089D01*
X0246871Y0122236D01*
X0246892Y0122382D01*
X0246918Y0122528D01*
X0246948Y0122673D01*
X0246981Y0122817D01*
X0247019Y0122960D01*
X0247060Y0123102D01*
X0247105Y0123243D01*
X0247153Y0123383D01*
X0247206Y0123522D01*
X0247262Y0123659D01*
X0247322Y0123794D01*
X0247385Y0123928D01*
X0247452Y0124060D01*
X0247523Y0124190D01*
X0247597Y0124318D01*
X0247674Y0124444D01*
X0247755Y0124568D01*
X0247839Y0124690D01*
X0247926Y0124809D01*
X0248017Y0124926D01*
X0248111Y0125041D01*
X0248207Y0125153D01*
X0248307Y0125263D01*
X0248409Y0125369D01*
X0248515Y0125473D01*
X0248623Y0125574D01*
X0248734Y0125672D01*
X0248847Y0125768D01*
X0248963Y0125860D01*
X0249081Y0125949D01*
X0249202Y0126034D01*
X0249325Y0126117D01*
X0249450Y0126196D01*
X0249577Y0126272D01*
X0249706Y0126344D01*
X0249837Y0126413D01*
X0249970Y0126478D01*
X0250105Y0126539D01*
X0250241Y0126597D01*
X0250378Y0126652D01*
X0250517Y0126702D01*
X0250658Y0126749D01*
X0250799Y0126792D01*
X0250942Y0126832D01*
X0251086Y0126867D01*
X0251230Y0126899D01*
X0251376Y0126926D01*
X0251522Y0126950D01*
X0251669Y0126970D01*
X0251816Y0126986D01*
X0251963Y0126998D01*
X0252111Y0127006D01*
X0252259Y0127010D01*
X0252407Y0127010D01*
X0252555Y0127006D01*
X0252703Y0126998D01*
X0252850Y0126986D01*
X0252997Y0126970D01*
X0253144Y0126950D01*
X0253290Y0126926D01*
X0253436Y0126899D01*
X0253580Y0126867D01*
X0253724Y0126832D01*
X0253867Y0126792D01*
X0254008Y0126749D01*
X0254149Y0126702D01*
X0254288Y0126652D01*
X0254425Y0126597D01*
X0254561Y0126539D01*
X0254696Y0126478D01*
X0254829Y0126413D01*
X0254960Y0126344D01*
X0255089Y0126272D01*
X0255216Y0126196D01*
X0255341Y0126117D01*
X0255464Y0126034D01*
X0255585Y0125949D01*
X0255703Y0125860D01*
X0255819Y0125768D01*
X0255932Y0125672D01*
X0256043Y0125574D01*
X0256151Y0125473D01*
X0256257Y0125369D01*
X0256359Y0125263D01*
X0256459Y0125153D01*
X0256555Y0125041D01*
X0256649Y0124926D01*
X0256740Y0124809D01*
X0256827Y0124690D01*
X0256911Y0124568D01*
X0256992Y0124444D01*
X0257069Y0124318D01*
X0257143Y0124190D01*
X0257214Y0124060D01*
X0257281Y0123928D01*
X0257344Y0123794D01*
X0257404Y0123659D01*
X0257460Y0123522D01*
X0257513Y0123383D01*
X0257561Y0123243D01*
X0257606Y0123102D01*
X0257647Y0122960D01*
X0257685Y0122817D01*
X0257718Y0122673D01*
X0257748Y0122528D01*
X0257774Y0122382D01*
X0257795Y0122236D01*
X0257813Y0122089D01*
X0257827Y0121942D01*
X0257837Y0121794D01*
X0257843Y0121646D01*
X0257845Y0121498D01*
X0257843Y0121350D01*
X0257837Y0121202D01*
X0257827Y0121054D01*
X0257813Y0120907D01*
X0257795Y0120760D01*
X0257774Y0120614D01*
X0257748Y0120468D01*
X0257718Y0120323D01*
X0257685Y0120179D01*
X0257647Y0120036D01*
X0257606Y0119894D01*
X0257561Y0119753D01*
X0257513Y0119613D01*
X0257460Y0119474D01*
X0257404Y0119337D01*
X0257344Y0119202D01*
X0257281Y0119068D01*
X0257214Y0118936D01*
X0257143Y0118806D01*
X0257069Y0118678D01*
X0256992Y0118552D01*
X0256911Y0118428D01*
X0256827Y0118306D01*
X0256740Y0118187D01*
X0256649Y0118070D01*
X0256555Y0117955D01*
X0256459Y0117843D01*
X0256359Y0117733D01*
X0256257Y0117627D01*
X0256151Y0117523D01*
X0256043Y0117422D01*
X0255932Y0117324D01*
X0255819Y0117228D01*
X0255703Y0117136D01*
X0255585Y0117047D01*
X0255464Y0116962D01*
X0255341Y0116879D01*
X0255216Y0116800D01*
X0255089Y0116724D01*
X0254960Y0116652D01*
X0254829Y0116583D01*
X0254696Y0116518D01*
X0254561Y0116457D01*
X0254425Y0116399D01*
X0254288Y0116344D01*
X0254149Y0116294D01*
X0254008Y0116247D01*
X0253867Y0116204D01*
X0253724Y0116164D01*
X0253580Y0116129D01*
X0253436Y0116097D01*
X0253290Y0116070D01*
X0253144Y0116046D01*
X0252997Y0116026D01*
X0252850Y0116010D01*
X0252703Y0115998D01*
X0252555Y0115990D01*
X0252407Y0115986D01*
X0252259Y0115986D01*
X0252111Y0115990D01*
X0251963Y0115998D01*
X0251816Y0116010D01*
X0251669Y0116026D01*
X0251522Y0116046D01*
X0251376Y0116070D01*
X0251230Y0116097D01*
X0251086Y0116129D01*
X0250942Y0116164D01*
X0250799Y0116204D01*
X0250658Y0116247D01*
X0250517Y0116294D01*
X0250378Y0116344D01*
X0250241Y0116399D01*
X0250105Y0116457D01*
X0249970Y0116518D01*
X0249837Y0116583D01*
X0249706Y0116652D01*
X0249577Y0116724D01*
X0249450Y0116800D01*
X0249325Y0116879D01*
X0249202Y0116962D01*
X0249081Y0117047D01*
X0248963Y0117136D01*
X0248847Y0117228D01*
X0248734Y0117324D01*
X0248623Y0117422D01*
X0248515Y0117523D01*
X0248409Y0117627D01*
X0248307Y0117733D01*
X0248207Y0117843D01*
X0248111Y0117955D01*
X0248017Y0118070D01*
X0247926Y0118187D01*
X0247839Y0118306D01*
X0247755Y0118428D01*
X0247674Y0118552D01*
X0247597Y0118678D01*
X0247523Y0118806D01*
X0247452Y0118936D01*
X0247385Y0119068D01*
X0247322Y0119202D01*
X0247262Y0119337D01*
X0247206Y0119474D01*
X0247153Y0119613D01*
X0247105Y0119753D01*
X0247060Y0119894D01*
X0247019Y0120036D01*
X0246981Y0120179D01*
X0246948Y0120323D01*
X0246918Y0120468D01*
X0246892Y0120614D01*
X0246871Y0120760D01*
X0246853Y0120907D01*
X0246839Y0121054D01*
X0246829Y0121202D01*
X0246823Y0121350D01*
X0246821Y0121498D01*
M02*
